#!OML:ASF I:\Actors\actors\Patient Classification 1\Patient 1\Session 1\Subject1.ASF
:FULLY-SPECIFIED
:DEGREES
900
root 0.89207 17.5631 8.09328 12.7773 -3.92499 -9.84628
lowerback 5.43445 1.80567 7.61764
upperback -7.18456 3.51021 2.82881
thorax -10.5232 1.23736 -1.70978
lowerneck -10.4198 -6.75063 -5.08125
upperneck 20.9988 -9.96941 6.76871
head 8.8782 -4.44075 2.02502
rclavicle -8.32683e-015 -1.59028e-014
rhumerus 5.26046 33.3223 -86.2591
rradius 72.6998
rwrist 43.5569
rhand -3.64073 -61.9503
rfingers 7.12502
rthumb 22.0989 -629.293
lclavicle -8.32683e-015 -1.59028e-014
lhumerus -13.9839 -22.1713 96.3182
lradius 69.0695
lwrist -34.2301
lhand -39.6349 -21.0032
lfingers 7.12502
lthumb -12.6159 8.59586
rfemur -10.0495 24.357 21.3263
rtibia 4.2903
rfoot -12.2022 -27.1965
rtoes 3.39812
lfemur -5.48485 -25.0935 -8.3787
ltibia 0.385549
lfoot -12.3941 37.9267
ltoes 4.29246
901
root 0.892279 17.5595 8.10235 12.7283 -3.54358 -9.85077
lowerback 5.34656 1.71834 7.58829
upperback -7.1449 3.38399 2.90358
thorax -10.4419 1.1862 -1.59292
lowerneck -10.444 -6.72859 -5.24353
upperneck 21.0659 -9.94292 6.90538
head 8.9201 -4.42505 2.09954
rclavicle 6.44575e-015 -2.01269e-014
rhumerus 3.01656 33.7282 -86.5206
rradius 75.4914
rwrist 44.7543
rhand -6.74754 -62.4049
rfingers 7.12502
rthumb 19.1136 -628.514
lclavicle 6.44575e-015 -2.01269e-014
lhumerus -14.0329 -21.9974 96.5022
lradius 69.0573
lwrist -34.3166
lhand -39.8838 -21.0384
lfingers 7.12502
lthumb -12.8557 8.54566
rfemur -9.89544 24.2332 21.4259
rtibia 4.27477
rfoot -12.3343 -27.4437
rtoes 3.30727
lfemur -5.43448 -25.3265 -8.34823
ltibia 0.260903
lfoot -12.2603 37.8036
ltoes 4.12429
902
root 0.887698 17.5604 8.11383 12.7612 -3.26312 -9.42589
lowerback 5.13534 1.64666 7.0075
upperback -7.13277 3.20371 2.88821
thorax -10.3343 1.14791 -1.25781
lowerneck -10.5911 -6.7117 -5.37616
upperneck 21.2477 -9.90725 6.92722
head 9.01572 -4.40865 2.12748
rclavicle -2.22282e-014 5.40694e-014
rhumerus 0.51934 33.8262 -87.2508
rradius 77.7308
rwrist 46.0756
rhand -9.60866 -62.9077
rfingers 7.12502
rthumb 16.3605 -627.762
lclavicle -2.22282e-014 5.40694e-014
lhumerus -14.1013 -21.8357 96.6695
lradius 69.0325
lwrist -34.3166
lhand -40.0081 -21.0819
lfingers 7.12502
lthumb -12.9756 8.49463
rfemur -9.89607 24.3261 20.9226
rtibia 4.24028
rfoot -12.6177 -27.8725
rtoes 3.70802
lfemur -5.50672 -25.842 -8.77119
ltibia 0.171355
lfoot -12.2201 37.9497
ltoes 4.11434
903
root 0.876941 17.5665 8.12816 12.9804 -3.07688 -8.59003
lowerback 4.65338 1.58824 5.88914
upperback -7.17796 2.96261 2.77825
thorax -10.1422 1.11825 -0.710645
lowerneck -10.6621 -6.65356 -5.38212
upperneck 21.3769 -9.7987 6.78904
head 9.05855 -4.3676 2.09261
rclavicle 1.07041e-014 -4.04527e-014
rhumerus -2.10963 33.9106 -88.2219
rradius 79.6374
rwrist 46.9481
rhand -12.2901 -63.5754
rfingers 7.12502
rthumb 13.7774 -626.901
lclavicle 1.07041e-014 -4.04527e-014
lhumerus -14.2385 -21.7055 96.7686
lradius 68.9968
lwrist -34.3559
lhand -39.9006 -20.9962
lfingers 7.12502
lthumb -12.872 8.58683
rfemur -10.1819 24.5716 19.8004
rtibia 4.22276
rfoot -12.9799 -28.4309
rtoes 4.41274
lfemur -5.8695 -26.4539 -9.54293
ltibia 0.17653
lfoot -12.1879 38.207
ltoes 4.12291
904
root 0.87114 17.5693 8.13889 13.0905 -2.87686 -8.17187
lowerback 4.35459 1.5196 5.33057
upperback -7.19037 2.78924 2.73444
thorax -10.0013 1.07868 -0.417317
lowerneck -10.6239 -6.5719 -5.36671
upperneck 21.372 -9.66918 6.71226
head 9.03569 -4.31449 2.08153
rclavicle 8.07796e-015 2.10712e-014
rhumerus -3.6255 35.1322 -88.3453
rradius 80.7147
rwrist 46.5723
rhand -14.4074 -65.1171
rfingers 7.12502
rthumb 11.7362 -625.232
lclavicle 8.07796e-015 2.10712e-014
lhumerus -14.3846 -21.6127 96.7961
lradius 68.9278
lwrist -34.4094
lhand -39.7028 -20.7935
lfingers 7.12502
lthumb -12.6813 8.80145
rfemur -10.3371 24.5064 19.2658
rtibia 4.29264
rfoot -13.1784 -28.6439
rtoes 4.73879
lfemur -6.03811 -26.8993 -9.92692
ltibia 0.137233
lfoot -12.0121 38.3846
ltoes 3.89189
905
root 0.86959 17.5685 8.14564 13.0149 -2.75635 -8.16471
lowerback 4.34286 1.49778 5.28928
upperback -7.1476 2.75355 2.74613
thorax -9.94996 1.06675 -0.377149
lowerneck -10.6596 -6.53321 -5.43427
upperneck 21.4271 -9.62329 6.79415
head 9.06606 -4.288 2.12474
rclavicle -8.1921e-016 -1.32192e-014
rhumerus -5.91364 35.3062 -89.4031
rradius 81.7099
rwrist 47.0442
rhand -15.7722 -65.6063
rfingers 7.12502
rthumb 10.4199 -624.672
lclavicle -8.1921e-016 -1.32192e-014
lhumerus -14.4916 -21.6029 96.8349
lradius 68.78
lwrist -34.4379
lhand -39.6748 -20.6572
lfingers 7.12502
lthumb -12.6542 8.93947
rfemur -10.261 24.2715 19.339
rtibia 4.40509
rfoot -13.1792 -28.5549
rtoes 4.54724
lfemur -5.88507 -27.1021 -9.99466
ltibia 0.0421463
lfoot -11.9562 38.4664
ltoes 3.87292
906
root 0.866831 17.5672 8.14874 12.9853 -2.64641 -8.20402
lowerback 4.33807 1.50232 5.28258
upperback -7.13823 2.75991 2.76401
thorax -9.93759 1.07168 -0.355016
lowerneck -10.76 -6.53262 -5.6016
upperneck 21.5858 -9.63671 6.9589
head 9.1582 -4.28513 2.20289
rclavicle 9.18564e-015 3.83654e-014
rhumerus -8.5312 34.9072 -90.8865
rradius 82.3672
rwrist 47.765
rhand -17.0066 -65.632
rfingers 7.12502
rthumb 9.22901 -624.59
lclavicle 9.18564e-015 3.83654e-014
lhumerus -14.6068 -21.6473 96.9334
lradius 68.6422
lwrist -34.3831
lhand -39.6486 -20.693
lfingers 7.12502
lthumb -12.629 8.90519
rfemur -10.2435 24.2448 19.4334
rtibia 4.49537
rfoot -13.1695 -28.6312
rtoes 4.28814
lfemur -5.87997 -27.0579 -9.92447
ltibia 0.03275
lfoot -11.9415 38.3524
ltoes 3.88989
907
root 0.867044 17.5654 8.1489 13.0228 -2.36358 -8.28268
lowerback 4.30478 1.46449 5.4234
upperback -7.1502 2.72261 2.79218
thorax -9.92957 1.04442 -0.397471
lowerneck -10.9243 -6.54065 -5.75723
upperneck 21.7109 -9.63704 7.03318
head 9.24455 -4.2832 2.24827
rclavicle -6.66666e-015 8.15017e-015
rhumerus -10.8679 34.4407 -92.2687
rradius 82.3872
rwrist 48.2793
rhand -18.9279 -65.8957
rfingers 7.12502
rthumb 7.37473 -624.253
lclavicle -6.66666e-015 8.15017e-015
lhumerus -14.6852 -21.7036 97.0416
lradius 68.5517
lwrist -34.3374
lhand -39.5641 -20.8249
lfingers 7.12502
lthumb -12.5476 8.77833
rfemur -10.2744 24.2798 19.5387
rtibia 4.53076
rfoot -13.2818 -28.9112
rtoes 4.41723
lfemur -6.13217 -26.9177 -9.68591
ltibia 0.157759
lfoot -11.8329 38.0283
ltoes 3.6607
908
root 0.867227 17.5652 8.14996 13.0119 -2.12474 -8.35304
lowerback 4.31695 1.44541 5.57217
upperback -7.12034 2.71183 2.81382
thorax -9.90037 1.0301 -0.455838
lowerneck -11.2059 -6.54949 -5.91081
upperneck 21.8267 -9.6253 7.07957
head 9.34742 -4.27526 2.28185
rclavicle -1.9727e-015 8.34896e-015
rhumerus -12.7536 33.8965 -93.4918
rradius 81.7285
rwrist 48.8946
rhand -21.2706 -64.6446
rfingers 7.12502
rthumb 5.1131 -625.437
lclavicle -1.9727e-015 8.34896e-015
lhumerus -14.697 -21.7445 97.1577
lradius 68.4023
lwrist -34.5218
lhand -39.6787 -20.9875
lfingers 7.12502
lthumb -12.6581 8.60894
rfemur -10.2061 24.2932 19.6722
rtibia 4.50723
rfoot -13.4652 -29.1193
rtoes 4.85633
lfemur -6.29838 -26.6638 -9.50945
ltibia 0.283645
lfoot -11.6244 37.6205
ltoes 3.01558
